<svg width="23" height="21" viewBox="0 0 23 21" fill="none" xmlns="http://www.w3.org/2000/svg">
<path d="M12.7402 2.40276L12.74 2.403L11.9059 3.35456L11.5299 3.78356L11.1539 3.35456L10.3199 2.403L10.3193 2.40239C8.35339 0.151999 5.22397 -0.167389 3.13924 1.79934C0.681511 4.12187 0.545321 8.3248 2.75303 10.8521L12.7402 2.40276ZM12.7402 2.40276C14.7106 0.151686 17.8361 -0.167205 19.9206 1.79934L12.7402 2.40276ZM10.9451 20.2176L2.75323 10.8523L19.9209 1.7996C22.3784 4.12223 22.5143 8.32489 20.3027 10.8519L20.3026 10.8521L12.1105 20.2176C12.1104 20.2176 12.1104 20.2176 12.1104 20.2177C11.7804 20.5947 11.2751 20.5946 10.9451 20.2176Z" stroke="#101010"/>
</svg>
